<?xml version="1.0" encoding="utf-8"?>
<!-- Generator: Adobe Illustrator 16.0.0, SVG Export Plug-In . SVG Version: 6.00 Build 0)  -->
<!DOCTYPE svg PUBLIC "-//W3C//DTD SVG 1.1//EN" "http://www.w3.org/Graphics/SVG/1.1/DTD/svg11.dtd">
<svg version="1.1" id="Layer_1" xmlns="http://www.w3.org/2000/svg" xmlns:xlink="http://www.w3.org/1999/xlink" x="0px" y="0px"
	 width="232.607px" height="58.695px" viewBox="0 0 232.607 58.695" enable-background="new 0 0 232.607 58.695"
	 xml:space="preserve">
<rect x="4.414" y="2.218" fill="#1365B0" width="4.806" height="4.947"/>
<rect x="9.868" y="2.218" fill="#DC222D" width="4.807" height="4.816"/>
<rect x="4.674" y="8.727" fill="#DC222D" width="4.806" height="4.688"/>
<rect x="10.779" y="8.727" fill="#1365B0" width="7.662" height="7.684"/>
<rect x="1.946" y="17.189" fill="#1365B0" width="7.402" height="7.162"/>
<rect x="10.908" y="17.58" fill="#DC222D" width="8.701" height="7.684"/>
<path fill="#1365B0" d="M208.99,11.721H43.641c9.48,3.126,16.495,12.107,16.495,22.786c0,10.807-7.273,19.919-17.017,22.784h165.87
	c11.822,0,21.434-10.156,21.434-22.784l0,0C230.424,22.007,220.813,11.721,208.99,11.721L208.99,11.721z"/>
<path fill="#1365B0" d="M35.847,12.113c12.21,0,22.081,10.022,22.081,22.396c0,12.365-9.871,22.395-22.081,22.395
	c-12.209,0-22.211-10.027-22.211-22.395c0-3.128,0.648-5.99,1.688-8.595h4.936v-7.292C24.286,14.585,29.742,12.113,35.847,12.113
	L35.847,12.113z"/>
<path fill="#FFFFFF" d="M35.847,21.357c7.146,0,12.989,5.857,12.989,13.15c0,7.291-5.846,13.147-12.989,13.147
	c-7.272,0-12.989-5.856-12.989-13.147C22.857,27.215,28.574,21.357,35.847,21.357L35.847,21.357z"/>
<polygon fill="#DC222D" points="28.574,25.002 47.148,34.508 28.574,44.012 "/>
<path fill="#FFFFFF" d="M74.813,25.131c0-0.26,0.131-0.389,0.131-0.521c0,0,0.13-0.131,0.261-0.131l2.729-0.649c0,0,0.129,0,0.26,0
	h0.129c0,0.131,0.13,0.262,0.13,0.392c-0.13,0.131-0.13,0.391-0.13,0.781c0,0.261-0.129,0.649-0.129,1.042c0,0.521,0,0.91,0,1.303
	c0,0.391,0,0.778,0,1.042v0.521c0,0.521,0,0.912,0,1.433c0,0.521,0,1.04,0,1.561c0,0.523,0,1.045-0.131,1.563
	c0,0.392,0,0.911,0,1.303v1.82c0,0,0,0,0,0.135l0,0v0.129c0,0.129,0,0.262,0,0.392v0.129c0,0.134,0,0.134,0,0.264
	c-0.129,0-0.129,0.129-0.129,0.129l-0.131,0.128c-0.13,0.134-0.261,0.134-0.39,0.263c0,0-0.132,0.13-0.261,0.13
	c-0.261,0.133-0.392,0.262-0.521,0.391c-0.26,0.135-0.391,0.264-0.647,0.393c-0.26,0.129-0.392,0.129-0.521,0.263
	c-0.261,0.129-0.393,0.258-0.393,0.258c-0.129,0.134-0.26,0.134-0.26,0.134L70.134,32.3l-0.518,6.122c0,0,0,0,0,0.129l-0.132,0.13
	c-0.129,0-0.129,0.134-0.389,0.134c-0.132,0-0.261,0.129-0.521,0.258c-0.133,0-0.39,0.129-0.649,0.129
	c-0.131,0.134-0.391,0.263-0.52,0.263c-0.261,0.129-0.392,0.129-0.65,0.129c-0.129,0.134-0.261,0.134-0.261,0.134
	c-0.129,0-0.129,0-0.261-0.134c0,0-0.129-0.129-0.129-0.258c0.129-0.911,0.129-1.82,0.261-2.866
	c0.129-1.038,0.129-2.083,0.261-3.122c0.129-1.045,0.129-2.084,0.261-3.124c0-1.045,0.129-2.087,0.129-3.129c0,0,0,0-0.129-0.26
	c0-0.129-0.132-0.261-0.261-0.521c-0.132-0.131-0.261-0.261-0.261-0.392c-0.132-0.261-0.132-0.261-0.132-0.393V25.4
	c0.132,0,0.132-0.131,0.261-0.131l2.858-1.563l0,0h0.129c0.132,0,0.132,0,0.132,0c0.129,0,0.129,0,0.129,0.129l5.064,9.115v-7.816
	h0.006V25.131z M86.114,27.475c0.649,0,1.301,0.131,1.82,0.392c0.521,0.26,1.037,0.521,1.428,0.91
	c0.261,0.392,0.649,0.782,0.78,1.303c0.26,0.521,0.389,0.911,0.389,1.436c0,0.387-0.129,0.91-0.389,1.303
	c-0.261,0.392-0.65,0.776-1.171,1.168c-0.39,0.393-1.037,0.653-1.688,0.782c-0.648,0.262-1.299,0.392-2.208,0.392
	c-0.39,0-0.777-0.13-1.299-0.13c0.129,0.259,0.129,0.521,0.261,0.782c0.261,0.129,0.39,0.388,0.648,0.521
	c0.129,0.129,0.39,0.258,0.647,0.258c0.392,0.135,0.649,0.135,0.911,0.135c0.389,0,0.647,0,0.907-0.135
	c0.39,0,0.647-0.129,0.909-0.258c0.26,0,0.521-0.133,0.778-0.263c0.26-0.129,0.521-0.258,0.779-0.391c0.129,0,0.129,0,0.129,0
	c0.132,0,0.132,0,0.132,0s0,0,0,0.133c0,0.129,0,0.258,0,0.521c0,0.129,0,0.393,0,0.648c0,0.263,0,0.652,0,0.91
	c0,0.134,0,0.134,0,0.134v0.129c0,0,0,0.13-0.132,0.263c-0.129,0.129-0.39,0.129-0.647,0.258c-0.261,0.135-0.521,0.264-0.779,0.264
	c-0.389,0.129-0.648,0.258-1.039,0.392c-0.261,0-0.521,0.129-0.908,0.129c-0.262,0-0.521,0-0.78,0c-0.778,0-1.429-0.129-2.076-0.392
	c-0.779-0.258-1.43-0.521-1.948-1.04c-0.52-0.52-0.91-1.044-1.3-1.825c-0.261-0.647-0.39-1.432-0.39-2.214
	c0-0.91,0.129-1.82,0.39-2.604c0.39-0.781,0.779-1.431,1.3-2.082c0.521-0.521,1.299-1.041,2.077-1.302
	C84.427,27.606,85.206,27.475,86.114,27.475L86.114,27.475z M85.985,30.211c-0.26,0-0.521,0-0.778,0.129
	c-0.131,0.129-0.392,0.393-0.65,0.521c-0.128,0.263-0.258,0.521-0.519,0.91c-0.131,0.264-0.261,0.652-0.261,0.911
	c0.648,0,1.299-0.13,1.688-0.392c0.521-0.129,0.909-0.258,1.169-0.393c0.261-0.129,0.521-0.258,0.648-0.388
	c0-0.133,0.131-0.262,0.131-0.391c0-0.134,0-0.263-0.131-0.392c-0.13-0.135-0.261-0.135-0.39-0.264
	c-0.131-0.129-0.261-0.129-0.39-0.129C86.246,30.211,86.114,30.211,85.985,30.211L85.985,30.211z M97.285,30.99
	c0,0.78-0.129,1.435-0.262,2.217c0,0.647-0.129,1.432-0.129,1.95c0,0.263,0,0.521,0,0.652c0.129,0.258,0.129,0.388,0.262,0.521
	c0,0.129,0.129,0.129,0.26,0.129c0.129,0.129,0.26,0.129,0.39,0.129c0.26,0,0.391,0,0.649-0.129c0.261,0,0.52-0.129,0.777-0.262
	c0.131,0,0.261,0,0.261,0l0.131-0.13c0.129,0,0.129,0.13,0.129,0.13c0,0.133,0.131,0.133,0.131,0.391c0,0.135,0,0.264,0.13,0.523
	c0,0.259,0.131,0.648,0.131,1.04c0.129,0,0.129,0.13,0.129,0.13l0,0c0,0.133-0.129,0.262-0.129,0.262
	c-0.131,0-0.261,0.129-0.392,0.129c-0.26,0.135-0.521,0.135-0.907,0.264c-0.262,0.129-0.649,0.258-0.909,0.258
	c-0.261,0.134-0.649,0.134-0.911,0.263c-0.26,0-0.519,0-0.647,0c-1.168,0-2.077-0.263-2.598-0.782
	C93.259,38.025,93,37.242,93,36.069c0-0.258,0-0.392,0-0.647c0.129-0.134,0.129-0.393,0.129-0.652c0-0.647,0.131-1.303,0.131-1.95
	c0.13-0.652,0.13-1.174,0.13-1.825h-1.037c-0.392,0-0.649,0-0.779,0c-0.132,0-0.261-0.13-0.261-0.13c0-0.129,0-0.129,0.129-0.263
	c0-0.129,0.132-0.259,0.262-0.388c0.131-0.262,0.26-0.391,0.26-0.651c0.131-0.132,0.261-0.262,0.392-0.521
	c0.129-0.131,0.26-0.263,0.26-0.392c0.13-0.131,0.259-0.26,0.259-0.26h0.65c0.129-0.521,0.129-0.913,0.129-1.306
	c0.132-0.39,0.132-0.649,0.132-0.91c0-0.129,0-0.392,0.129-0.521c0-0.131,0-0.26,0-0.26l0.131-0.131h0.129
	c0.261-0.132,0.647-0.132,0.908-0.261c0.261,0,0.521,0,0.91-0.131c0.261,0,0.521-0.129,0.777-0.129
	c0.393-0.133,0.65-0.264,1.04-0.264l0,0l0,0c0.131,0,0.131,0,0.131,0l0,0c0,0.393-0.131,0.913-0.131,1.692
	c-0.129,0.65-0.129,1.434-0.261,2.215h2.729c0.133,0,0.133,0,0.133,0.13c0.128,0,0.128,0,0.128,0.131c0,0,0,0.129-0.128,0.392
	c-0.133,0.26-0.133,0.521-0.393,0.781l-0.261,0.911c-0.129,0.129-0.129,0.129-0.26,0.259c0,0-0.129,0-0.261,0L97.285,30.99
	L97.285,30.99z M101.182,33.984c0-0.91,0.131-1.82,0.521-2.604c0.26-0.781,0.779-1.431,1.3-2.082
	c0.647-0.521,1.301-1.041,2.077-1.302c0.911-0.392,1.689-0.521,2.729-0.521c0.521,0,1.169,0,1.561,0.131
	c0.521,0.131,0.779,0.261,1.169,0.392c0.26,0.129,0.521,0.261,0.647,0.261c0.132,0.132,0.132,0.261,0.132,0.261s0,0.131,0,0.26
	c0,0.263-0.132,0.521-0.132,0.65c0,0.261-0.129,0.521-0.129,0.783c0,0.259,0,0.521,0,0.778c0,0,0,0,0,0.133
	c-0.129,0-0.129,0-0.261,0c0,0-0.129,0-0.26-0.133c-0.261,0-0.39-0.13-0.647-0.13c-0.261-0.129-0.521-0.129-0.78-0.263
	c-0.26,0-0.647,0-1.039,0c-0.389,0-0.779,0-1.169,0.263c-0.389,0.13-0.647,0.392-0.907,0.652c-0.262,0.258-0.521,0.648-0.651,1.039
	c-0.129,0.393-0.26,0.782-0.26,1.174c0,0.521,0.131,0.911,0.26,1.302c0.132,0.259,0.392,0.521,0.651,0.782
	c0.26,0.258,0.521,0.388,0.778,0.388c0.39,0.133,0.647,0.262,1.037,0.262c0.393,0,0.779-0.129,1.3-0.262
	c0.39-0.13,0.78-0.259,1.169-0.388c0-0.134,0-0.134,0-0.134c0.132,0,0.132,0.134,0.132,0.134v0.129c0,0.259,0,0.521,0,0.782
	c0,0.391,0,0.647,0,0.91c0,0.392,0,0.521,0,0.781c0,0.258,0,0.258,0,0.258c-0.261,0.264-0.521,0.393-0.779,0.393
	c-0.261,0.129-0.65,0.263-0.908,0.263c-0.261,0.129-0.65,0.129-0.911,0.129c-0.39,0-0.647,0-0.908,0
	c-0.778,0-1.561-0.129-2.208-0.392c-0.779-0.258-1.3-0.648-1.818-1.04c-0.519-0.521-0.909-1.173-1.298-1.825
	C101.313,35.548,101.182,34.766,101.182,33.984L101.182,33.984z M122.744,36.85c0,0.129,0,0.129,0,0.129s0,0,0,0.133
	c0,0.13,0,0.259,0,0.393c0.129,0.129,0.129,0.129,0.262,0.259l0.129,0.128c0.13,0.134,0.13,0.134,0.13,0.134
	c0,0.129-0.13,0.259-0.392,0.259l-2.729,1.173l0,0c-0.129,0-0.129,0-0.258-0.129c0,0,0-0.134-0.13-0.263
	c0-0.258-0.133-0.393-0.133-0.521s-0.129-0.392-0.129-0.521c-0.388,0.521-0.906,0.911-1.428,1.169
	c-0.521,0.263-0.909,0.263-1.431,0.263c-0.648,0-1.169-0.129-1.688-0.263c-0.521-0.258-1.04-0.648-1.43-1.169
	c-0.521-0.392-0.779-1.044-1.04-1.692c-0.261-0.651-0.39-1.436-0.39-2.212c0-1.045,0.129-1.955,0.39-2.737
	c0.261-0.781,0.65-1.431,1.169-2.082c0.521-0.521,1.039-1.041,1.689-1.302c0.647-0.392,1.297-0.521,2.075-0.521
	c0.521,0,1.039,0.131,1.431,0.262c0.521,0.261,0.91,0.521,1.298,0.911c0.134-0.26,0.134-0.392,0.134-0.521c0-0.129,0-0.26,0-0.26
	c0-0.13,0.129-0.13,0.129-0.261c0.13,0,0.259,0,0.392,0c0.517-0.131,0.906-0.131,1.428-0.131c0.521-0.129,1.038-0.129,1.561-0.129
	L122.744,36.85z M119.625,33.073c0.133-0.392,0.133-0.781,0.133-1.174c0-0.387,0.13-0.647,0.13-0.909
	c-0.13-0.13-0.263-0.259-0.392-0.259c-0.129-0.134-0.259-0.264-0.388-0.264c-0.133-0.129-0.392-0.129-0.521-0.258
	c-0.134,0-0.263,0-0.521,0c-0.392,0-0.651,0.129-0.909,0.388c-0.259,0.134-0.393,0.523-0.648,0.781
	c-0.129,0.392-0.263,0.782-0.263,1.173c-0.129,0.393-0.129,0.782-0.129,1.04c0,1.044,0.129,1.826,0.392,2.347
	c0.392,0.521,0.777,0.781,1.298,0.781c0.129,0,0.391,0,0.647-0.134c0.263-0.129,0.521-0.258,0.781-0.521L119.625,33.073z
	 M125.081,36.068L125.081,36.068L125.081,36.068l0.134-0.129c0.128,0,0.128,0,0.258,0.129c0.258,0.263,0.521,0.392,0.91,0.653
	c0.388,0.129,0.777,0.258,1.17,0.258c0.129,0,0.129-0.129,0.387-0.129c0.133,0,0.263,0,0.392-0.129c0.129,0,0.262-0.135,0.262-0.135
	c0.13-0.129,0.13-0.258,0.13-0.392c0-0.129,0-0.258-0.13-0.387c0-0.134-0.133-0.263-0.262-0.392c0,0-0.129-0.134-0.392-0.263
	c-0.129,0-0.258-0.13-0.517-0.392c-0.134-0.13-0.392-0.259-0.521-0.392c-0.262,0-0.262-0.129-0.391-0.258
	c-0.263-0.135-0.521-0.394-0.782-0.653c-0.129-0.258-0.258-0.521-0.388-0.782c-0.128-0.258-0.128-0.52-0.128-0.781
	c-0.134-0.258-0.134-0.521-0.134-0.91c0-0.521,0.134-0.91,0.392-1.302c0.258-0.521,0.648-0.911,1.04-1.171
	c0.391-0.393,0.91-0.521,1.427-0.78c0.521-0.131,1.039-0.262,1.561-0.262c0.521,0,0.91,0,1.432,0.131
	c0.391,0.261,0.776,0.392,1.168,0.781c0,0.39,0.129,0.779,0.129,1.301c0,0.392,0,0.78,0,1.302c0,0.134,0,0.134,0,0.134
	c-0.129,0-0.129,0.129-0.129,0.129c-0.129,0-0.129-0.129-0.129-0.129c-0.263-0.134-0.392-0.263-0.521-0.392
	c-0.13-0.135-0.392-0.264-0.521-0.393c-0.264-0.129-0.393-0.262-0.649-0.262c-0.133-0.129-0.391-0.129-0.652-0.129
	c-0.128,0-0.257,0-0.386,0c-0.13,0-0.264,0.129-0.393,0.129c-0.129,0.133-0.259,0.133-0.259,0.262
	c-0.133,0.129-0.133,0.258-0.133,0.393c0,0.258,0,0.392,0.133,0.521c0,0.129,0.13,0.262,0.259,0.521l1.95,1.303
	c0.387,0.134,0.647,0.392,0.777,0.652c0.258,0.258,0.391,0.393,0.521,0.648c0.129,0.262,0.258,0.521,0.258,0.651
	c0.134,0.259,0.134,0.521,0.134,0.782c0,0.521-0.134,1.04-0.392,1.561c-0.392,0.521-0.777,0.91-1.168,1.173
	c-0.393,0.393-0.911,0.521-1.561,0.782c-0.521,0.129-1.169,0.129-1.688,0.129c-0.521,0-0.911,0-1.299-0.129
	c-0.391,0-0.781-0.134-1.168-0.392L125.081,36.068z M139.499,30.99c-0.129,0.78-0.258,1.435-0.258,2.217
	c-0.13,0.647-0.13,1.432-0.263,1.95c0,0.263,0.133,0.521,0.133,0.652c0,0.258,0.13,0.388,0.13,0.521
	c0.129,0.129,0.258,0.129,0.392,0.129c0,0.129,0.13,0.129,0.258,0.129c0.258,0,0.521,0,0.777-0.129c0.263,0,0.521-0.129,0.781-0.262
	c0.129,0,0.129,0,0.258,0c0,0,0-0.13,0.129-0.13l0.135,0.13c0,0.133,0,0.133,0,0.391c0.129,0.135,0.129,0.264,0.129,0.523
	c0.129,0.259,0.129,0.648,0.258,1.04v0.13l0,0c0,0.133,0,0.262-0.129,0.262c0,0-0.129,0.129-0.258,0.129
	c-0.393,0.135-0.648,0.135-0.911,0.264c-0.392,0.129-0.647,0.258-0.911,0.258c-0.386,0.134-0.647,0.134-0.905,0.263
	c-0.263,0-0.521,0-0.782,0c-1.168,0-1.944-0.263-2.466-0.782c-0.521-0.647-0.777-1.431-0.777-2.604c0-0.258,0-0.391,0-0.647
	c0-0.134,0-0.393,0-0.652c0.13-0.647,0.13-1.303,0.259-1.95c0-0.652,0.129-1.174,0.129-1.825h-1.04c-0.387,0-0.647,0-0.905,0
	c-0.13,0-0.13-0.13-0.13-0.13c0-0.129,0-0.129,0-0.263c0.13-0.129,0.259-0.259,0.259-0.388c0.129-0.262,0.258-0.391,0.392-0.651
	c0.129-0.132,0.258-0.262,0.387-0.521c0.135-0.131,0.135-0.263,0.264-0.392c0.129-0.131,0.129-0.26,0.129-0.26h0.776
	c0-0.521,0.134-0.913,0.134-1.306c0-0.39,0-0.649,0.129-0.91c0-0.129,0-0.392,0-0.521c0-0.131,0.129-0.26,0.129-0.26v-0.131
	c0.129,0,0.129,0,0.264,0c0.258-0.132,0.521-0.132,0.776-0.261c0.392,0,0.647,0,0.911-0.131c0.258,0,0.647-0.129,0.905-0.129
	c0.263-0.133,0.653-0.264,0.91-0.264l0,0h0.129h0.129l0,0c-0.129,0.393-0.129,0.913-0.258,1.692c0,0.65-0.128,1.434-0.128,2.216
	h2.729c0,0,0.129,0,0.129,0.129c0,0,0.129,0,0.129,0.131c0,0-0.129,0.129-0.129,0.392c-0.129,0.26-0.263,0.521-0.392,0.781
	l-0.393,0.911c0,0.129-0.129,0.129-0.129,0.259c0,0-0.129,0-0.258,0H139.499L139.499,30.99z M148.461,35.157L148.461,35.157
	L148.461,35.157c0-0.13,0-0.263,0.135-0.263c0.129,0,0.129,0,0.257,0.133c0.393,0.393,0.781,0.648,1.169,0.782
	c0.521,0.258,1.04,0.388,1.561,0.388c0.129,0,0.263,0,0.521-0.13c0.129,0,0.258,0,0.521-0.129c0.129,0,0.258-0.129,0.392-0.263
	c0.129-0.129,0.129-0.258,0.129-0.392c0-0.259,0-0.392-0.129-0.648c-0.134-0.129-0.263-0.262-0.392-0.391
	c0,0-0.129-0.129-0.264-0.129c-0.129-0.135-0.258-0.264-0.387-0.393c-0.13-0.134-0.392-0.263-0.521-0.392s-0.392-0.264-0.521-0.392
	c-0.129-0.129-0.264-0.264-0.393-0.393c-0.129,0-0.258-0.129-0.258-0.129c-0.392-0.391-0.781-0.652-1.039-0.911
	c-0.129-0.391-0.393-0.651-0.521-1.044c-0.13-0.258-0.13-0.647-0.264-1.042c0-0.389,0-0.778,0-1.17c0-0.521,0.134-1.174,0.392-1.692
	c0.393-0.521,0.781-1.042,1.298-1.434c0.521-0.389,1.174-0.65,1.821-0.911c0.777-0.26,1.56-0.391,2.466-0.391
	c0.129,0,0.264,0,0.521,0c0.262,0,0.521,0.131,0.782,0.131c0.258,0.131,0.515,0.131,0.776,0.26c0.258,0.132,0.521,0.261,0.776,0.392
	l0.134,0.133c0,0,0.129,0.129,0.129,0.26c0,0.521,0,1.171,0,1.691s0.129,1.042,0.129,1.692c0,0.13,0,0.13-0.129,0.261
	c0,0,0,0-0.129,0c-0.134,0-0.134,0-0.134,0c-0.258-0.261-0.521-0.392-0.647-0.65c-0.259-0.131-0.521-0.392-0.647-0.521
	c-0.258-0.13-0.521-0.261-0.778-0.393c-0.262,0-0.52-0.129-0.909-0.129c-0.129,0-0.393,0.129-0.521,0.129s-0.392,0-0.521,0.132
	c-0.129,0.131-0.259,0.261-0.392,0.392c0,0.131-0.129,0.261-0.129,0.521c0,0.264,0,0.393,0.129,0.65
	c0,0.132,0.263,0.263,0.392,0.392l2.471,1.692c0.516,0.392,0.906,0.651,1.169,1.039c0.258,0.264,0.521,0.652,0.647,0.916
	c0.129,0.258,0.258,0.647,0.258,0.91c0.134,0.258,0.134,0.648,0.134,0.91c0,0.521-0.134,0.911-0.263,1.432
	c-0.129,0.392-0.392,0.782-0.647,1.174c-0.263,0.263-0.521,0.646-0.911,0.91c-0.387,0.263-0.776,0.521-1.168,0.782
	c-0.393,0.129-0.911,0.258-1.298,0.392c-0.521,0.129-0.91,0.129-1.303,0.129c-0.388,0-0.776,0-1.035,0c-0.391,0-0.652,0-0.91,0
	c-0.392-0.129-0.647-0.129-0.91-0.263c-0.388-0.129-0.648-0.258-0.906-0.388L148.461,35.157z M165.479,27.475
	c0.647,0,1.297,0.131,1.816,0.392c0.521,0.26,1.039,0.521,1.303,0.91c0.387,0.392,0.776,0.782,0.905,1.303
	c0.263,0.521,0.392,0.911,0.392,1.436c0,0.387-0.129,0.91-0.392,1.303c-0.258,0.392-0.647,0.776-1.169,1.168
	c-0.387,0.393-1.039,0.653-1.688,0.782c-0.647,0.262-1.297,0.392-2.208,0.392c-0.387,0-0.776-0.13-1.297-0.13
	c0.129,0.259,0.129,0.521,0.257,0.782c0.264,0.129,0.393,0.388,0.653,0.521c0.129,0.129,0.387,0.258,0.648,0.258
	c0.386,0.135,0.647,0.135,0.905,0.135c0.392,0,0.647,0,0.91-0.135c0.393,0,0.648-0.129,0.911-0.258c0.258,0,0.521-0.133,0.776-0.263
	c0.257-0.129,0.521-0.258,0.777-0.391c0.134,0,0.134,0,0.134,0c0.129,0,0.129,0,0.129,0s0,0,0,0.133c0,0.129,0,0.258,0,0.521
	c0,0.129,0,0.393,0,0.648c0,0.263,0,0.652,0,0.91c0,0.134,0,0.134,0,0.134v0.129c0,0,0,0.13-0.129,0.263
	c-0.134,0.129-0.392,0.129-0.653,0.258c-0.258,0.135-0.517,0.264-0.776,0.264c-0.392,0.129-0.647,0.258-1.04,0.392
	c-0.258,0-0.521,0.129-0.905,0.129c-0.263,0-0.521,0-0.782,0c-0.776,0-1.426-0.129-2.208-0.392c-0.647-0.258-1.297-0.521-1.816-1.04
	c-0.521-0.521-0.91-1.044-1.297-1.825c-0.264-0.647-0.393-1.432-0.393-2.214c0-0.91,0.129-1.82,0.393-2.604
	c0.387-0.781,0.776-1.431,1.297-2.082c0.521-0.521,1.298-1.041,2.08-1.302C163.79,27.606,164.567,27.475,165.479,27.475
	L165.479,27.475z M165.35,30.211c-0.264,0-0.521,0-0.782,0.129c-0.129,0.129-0.387,0.393-0.647,0.521
	c-0.129,0.263-0.258,0.521-0.521,0.91c-0.128,0.264-0.257,0.652-0.257,0.911c0.647,0,1.297-0.13,1.688-0.392
	c0.521-0.129,0.911-0.258,1.169-0.393c0.258-0.129,0.521-0.258,0.647-0.388c0-0.133,0.129-0.262,0.129-0.391
	c0-0.134,0-0.263-0.129-0.392c-0.129-0.135-0.258-0.135-0.392-0.264c-0.129-0.129-0.258-0.129-0.387-0.129
	C165.607,30.211,165.479,30.211,165.35,30.211L165.35,30.211z"/>
<path fill="#FFFFFF" d="M179.505,30.598c-0.129,0-0.257,0-0.386-0.13c-0.264,0-0.393,0-0.653,0c-0.258,0-0.516,0-0.905,0.13
	c-0.264,0-0.521,0.134-0.911,0.263c-0.258,0.13-0.387,0.392-0.647,0.652c-0.129,0.258-0.258,0.648-0.393,1.039
	c0,0.521,0,0.911-0.129,1.303c0,0.264,0,0.521,0,0.782c0,0.129,0,0.391,0,0.521c0,0.129-0.129,0.129-0.129,0.263
	c0,0.129,0,0.129,0,0.259c0,0.133,0,0.262,0,0.391c0,0.263,0,0.392,0,0.653c-0.129,0.129-0.129,0.258-0.129,0.521
	c0,0.129,0,0.263,0,0.392c0,0.13,0,0.13,0,0.258c0,0,0,0,0,0.134c0,0,0,0,0,0.129c0,0,0,0-0.134,0.13c0,0-0.129,0-0.387,0.133
	l-2.729,0.911c0,0-0.129,0.129-0.264,0.129c-0.129,0-0.258,0-0.387,0c0,0-0.134,0-0.263,0c0,0,0-0.129,0-0.263l0.781-10.283
	c0.13-0.132,0.13-0.261,0.13-0.392c0-0.129,0.128-0.129,0.257-0.129c0.648-0.132,1.304-0.264,1.951-0.393
	c0.647-0.131,1.297-0.392,1.945-0.521l0,0c0,0,0,0,0,0.131l0,0c0,0,0,0.132,0,0.261c0,0,0,0.131,0,0.393
	C176,28.388,176,28.777,176,29.039c0.263-0.263,0.647-0.392,1.039-0.649c0.393-0.264,0.777-0.393,1.169-0.521
	c0.258-0.13,0.647-0.261,1.04-0.392c0.392,0,0.647-0.129,0.91-0.129L179.505,30.598z M187.952,27.606
	c0.129-0.131,0.129-0.131,0.257-0.131l0,0l0,0c0.521,0.262,1.04,0.392,1.561,0.521c0.648,0.129,1.169,0.261,1.688,0.393
	c0.129,0,0.129,0,0.129,0.129c0,0.131,0,0.26-0.129,0.392l-4.158,9.114c-0.129,0.129-0.129,0.259-0.129,0.259
	c-0.129,0.133-0.129,0.133-0.129,0.262c-0.129,0-0.129,0-0.129,0c-0.135,0.129-0.135,0.129-0.264,0.129
	c-0.521,0.135-1.039,0.135-1.56,0.393c-0.521,0.129-1.035,0.263-1.688,0.392l0,0l0,0h-0.129l0,0h-0.129
	c0-0.392-0.129-0.782-0.264-1.173c-0.129-0.521-0.258-1.04-0.516-1.561c-0.134-0.653-0.263-1.174-0.392-1.826
	c-0.263-0.647-0.392-1.303-0.647-2.079c-0.135-0.652-0.264-1.303-0.521-1.955c-0.135-0.648-0.264-1.302-0.521-1.952
	c0-0.132,0-0.261,0-0.392c0-0.129,0-0.129,0.129-0.129c0.521-0.132,1.04-0.264,1.688-0.393c0.521-0.131,1.04-0.261,1.561-0.521
	c0.129,0,0.129,0,0.129,0c0.129,0,0.129,0,0.129,0.131l1.432,6.901c0-0.133,0-0.262,0.129-0.523
	c0.129-0.129,0.129-0.391,0.263-0.647c0.129-0.392,0.258-0.652,0.387-1.044c0.135-0.393,0.393-0.777,0.521-1.169
	c0.129-0.392,0.264-0.782,0.393-1.044c0.129-0.392,0.258-0.78,0.392-1.04c0.129-0.392,0.258-0.649,0.387-0.913
	C187.818,27.866,187.952,27.737,187.952,27.606L187.952,27.606z M192.235,34.637c0.134-1.045,0.134-1.955,0.263-2.866
	c0.129-0.91,0.129-1.82,0.258-2.862c0-0.132,0-0.261,0-0.392c0.129-0.129,0.129-0.129,0.263-0.129
	c0.648-0.132,1.169-0.264,1.816-0.393c0.647-0.131,1.298-0.261,1.945-0.521l0,0c0.134,0,0.134,0,0.134,0.131l-0.91,10.025
	c0,0.129,0,0.392-0.129,0.392c0,0.129,0,0.129-0.129,0.259c-0.653,0.133-1.169,0.391-1.822,0.523
	c-0.647,0.258-1.168,0.521-1.944,0.647l0,0c-0.129,0-0.129,0-0.129,0s0-0.129,0-0.263c0-0.258,0-0.521,0-0.777
	c0.129-0.263,0.129-0.523,0.129-0.91c0-0.393,0.129-0.652,0.129-1.045c0-0.392,0-0.647,0-1.039
	C192.235,35.157,192.235,34.766,192.235,34.637L192.235,34.637z M193.017,26.433c0-0.39,0-0.65,0-0.78c0-0.131,0-0.26,0-0.26
	c0.129-0.131,0.129-0.131,0.129-0.263l0,0l0,0c0-0.129,0-0.129,0-0.26c0-0.129,0-0.262,0-0.393c0-0.261,0-0.521,0-0.778
	c0.129-0.261,0.129-0.393,0.129-0.522c0-0.129,0.129-0.129,0.264-0.129c0.521-0.131,1.168-0.262,1.816-0.391
	c0.647-0.132,1.297-0.261,1.815-0.522h0.129c0,0,0,0.132,0.135,0.132l0,0l-0.264,2.863c0,0.132,0,0.263-0.129,0.392
	c0,0.131,0,0.131-0.129,0.131c-0.647,0.13-1.168,0.262-1.821,0.393c-0.647,0.129-1.169,0.261-1.945,0.39l0,0
	C193.017,26.433,193.017,26.433,193.017,26.433L193.017,26.433z M198.082,33.984c0-0.91,0.129-1.82,0.521-2.604
	c0.258-0.781,0.777-1.431,1.298-2.082c0.647-0.521,1.297-1.041,2.079-1.302c0.776-0.392,1.688-0.521,2.601-0.521
	c0.647,0,1.168,0,1.688,0.131c0.387,0.131,0.776,0.261,1.168,0.392c0.258,0.129,0.387,0.261,0.521,0.261
	c0.129,0.132,0.258,0.261,0.258,0.261s0,0.131,0,0.26c-0.129,0.263-0.129,0.521-0.129,0.65c-0.129,0.261-0.129,0.521-0.129,0.783
	c0,0.259,0,0.521,0,0.778c0,0,0,0-0.135,0.133c0,0,0,0-0.129,0c0,0-0.129,0-0.392-0.133c-0.129,0-0.258-0.13-0.516-0.13
	c-0.263-0.129-0.521-0.129-0.782-0.263c-0.392,0-0.647,0-1.039,0c-0.387,0-0.777,0-1.169,0.263c-0.392,0.13-0.647,0.392-1.04,0.652
	c-0.257,0.258-0.386,0.648-0.521,1.039c-0.129,0.393-0.258,0.782-0.258,1.174c0,0.521,0.129,0.911,0.258,1.302
	c0.135,0.259,0.393,0.521,0.521,0.782c0.264,0.258,0.648,0.388,0.911,0.388c0.393,0.133,0.647,0.262,1.04,0.262
	c0.392,0,0.776-0.129,1.297-0.262c0.393-0.13,0.782-0.259,1.169-0.388c0-0.134,0-0.134,0-0.134c0.129,0,0.129,0.134,0.129,0.134
	v0.129c0,0.259,0,0.521,0,0.782c0,0.391,0,0.647,0,0.91c0,0.392,0,0.521,0,0.781c0,0.258,0,0.258,0,0.258
	c-0.258,0.264-0.516,0.393-0.776,0.393c-0.393,0.129-0.648,0.263-0.911,0.263c-0.387,0.129-0.647,0.129-0.905,0.129
	c-0.393,0-0.647,0-0.911,0c-0.776,0-1.561-0.129-2.337-0.392c-0.647-0.258-1.298-0.648-1.688-1.04
	c-0.521-0.521-1.04-1.173-1.298-1.825C198.211,35.548,198.082,34.766,198.082,33.984L198.082,33.984z M215.229,27.475
	c0.647,0,1.297,0.131,1.816,0.392c0.521,0.26,0.91,0.521,1.297,0.91c0.392,0.392,0.653,0.782,0.911,1.303
	c0.259,0.521,0.259,0.911,0.259,1.436c0,0.387-0.13,0.91-0.388,1.303c-0.264,0.392-0.521,0.776-1.04,1.168
	c-0.521,0.393-1.039,0.653-1.688,0.782c-0.647,0.262-1.432,0.392-2.208,0.392c-0.392,0-0.781-0.13-1.297-0.13
	c0,0.259,0.128,0.521,0.257,0.782c0.129,0.129,0.393,0.388,0.521,0.521c0.259,0.129,0.521,0.258,0.776,0.258
	c0.263,0.135,0.648,0.135,0.911,0.135c0.259,0,0.647,0,0.91-0.135c0.258,0,0.648-0.129,0.906-0.258c0.263,0,0.521-0.133,0.781-0.263
	c0.258-0.129,0.521-0.258,0.776-0.391h0.129h0.135c0,0,0,0,0,0.133c0,0.129,0,0.258,0,0.521c0,0.129,0,0.393,0,0.648
	c0,0.263,0,0.652,0,0.91c0,0.134,0,0.134,0,0.134v0.129c0,0,0,0.13-0.264,0.263c-0.128,0.129-0.257,0.129-0.521,0.258
	c-0.258,0.135-0.521,0.264-0.776,0.264c-0.392,0.129-0.647,0.258-1.04,0.392c-0.263,0-0.647,0.129-0.91,0.129
	c-0.258,0-0.521,0-0.777,0c-0.781,0-1.432-0.129-2.208-0.392c-0.647-0.258-1.297-0.521-1.816-1.04
	c-0.521-0.521-0.91-1.044-1.303-1.825c-0.258-0.647-0.521-1.432-0.521-2.214c0-0.91,0.263-1.82,0.521-2.604
	c0.264-0.781,0.782-1.431,1.303-2.082c0.521-0.521,1.169-1.041,1.945-1.302C213.406,27.606,214.317,27.475,215.229,27.475
	L215.229,27.475z M215.095,30.211c-0.259,0-0.517,0-0.777,0.129c-0.258,0.129-0.392,0.393-0.647,0.521
	c-0.129,0.263-0.393,0.521-0.521,0.91c-0.129,0.264-0.257,0.652-0.257,0.911c0.647,0,1.168-0.13,1.688-0.392
	c0.517-0.129,0.906-0.258,1.169-0.393c0.258-0.129,0.388-0.258,0.521-0.388c0.129-0.133,0.258-0.262,0.258-0.391
	c0-0.134-0.129-0.263-0.129-0.392c-0.129-0.135-0.262-0.135-0.392-0.264c-0.129-0.129-0.258-0.129-0.521-0.129
	C215.357,30.211,215.229,30.211,215.095,30.211L215.095,30.211z"/>
<g>
	<path fill="#F2AF00" d="M156.347,48.972l0.194-2.673c0.065-0.896,0.113-1.554,0.146-1.973s0.047-0.628,0.047-0.625
		c0.003-0.047,0.005-0.086,0.008-0.117c0.003-0.03,0.008-0.058,0.016-0.078c0.009-0.02,0.02-0.035,0.031-0.047
		c0.012-0.011,0.032-0.019,0.06-0.022l1.352-0.324c0.034-0.011,0.069-0.016,0.105-0.016c0.035,0,0.062,0.011,0.073,0.032
		c0.013,0.022,0.021,0.067,0.021,0.136c-0.02,0.16-0.032,0.313-0.043,0.452c-0.011,0.141-0.02,0.274-0.025,0.402
		s-0.013,0.251-0.018,0.369s-0.012,0.236-0.021,0.354c-0.016,0.129-0.028,0.256-0.041,0.384c-0.012,0.128-0.021,0.26-0.032,0.396
		c-0.012,0.136-0.021,0.281-0.033,0.435c-0.013,0.152-0.025,0.317-0.041,0.498l-0.172,2.059c-0.003,0.022-0.008,0.046-0.015,0.068
		c-0.007,0.021-0.023,0.04-0.053,0.053c-0.003,0-0.019,0.005-0.047,0.016s-0.066,0.024-0.113,0.041
		c-0.047,0.018-0.102,0.034-0.164,0.053c-0.062,0.02-0.129,0.035-0.199,0.052c-0.116,0.025-0.22,0.052-0.307,0.078
		c-0.087,0.025-0.165,0.05-0.231,0.071c-0.067,0.022-0.131,0.04-0.188,0.054c-0.058,0.013-0.114,0.02-0.172,0.02
		c-0.039,0-0.071-0.011-0.098-0.031C156.359,49.067,156.347,49.027,156.347,48.972z"/>
	<path fill="#F2AF00" d="M162.031,48.988c-0.028,0.008-0.066,0.021-0.113,0.037c-0.047,0.016-0.093,0.024-0.137,0.024
		c-0.036,0-0.068-0.009-0.096-0.026c-0.028-0.019-0.041-0.05-0.041-0.094v-0.023c0.016-0.141,0.027-0.26,0.039-0.357
		c0.011-0.097,0.021-0.187,0.028-0.266c0.009-0.079,0.018-0.159,0.023-0.238s0.015-0.172,0.024-0.276
		c0.011-0.105,0.022-0.23,0.037-0.375c0.016-0.146,0.032-0.325,0.054-0.541c0.013-0.134,0.023-0.27,0.034-0.406
		c0.012-0.137,0.017-0.266,0.017-0.383c0-0.078-0.006-0.15-0.019-0.217c-0.012-0.067-0.031-0.124-0.063-0.173
		c-0.031-0.048-0.071-0.085-0.123-0.11c-0.052-0.026-0.118-0.039-0.199-0.039c-0.06,0-0.143,0.013-0.248,0.039
		c-0.104,0.025-0.21,0.068-0.313,0.129c-0.104,0.06-0.196,0.139-0.277,0.235c-0.081,0.098-0.126,0.219-0.137,0.361
		c-0.017,0.192-0.03,0.357-0.043,0.494c-0.014,0.137-0.024,0.253-0.035,0.348c-0.011,0.096-0.02,0.174-0.025,0.232
		s-0.011,0.11-0.014,0.152c-0.003,0.011-0.007,0.039-0.012,0.086s-0.012,0.103-0.019,0.168c-0.007,0.064-0.013,0.134-0.02,0.207
		c-0.007,0.072-0.014,0.142-0.021,0.207c-0.007,0.064-0.012,0.121-0.016,0.168s-0.006,0.074-0.006,0.086
		c0,0.021,0.001,0.038,0.002,0.053s0.002,0.028,0.002,0.041c0,0.021-0.01,0.038-0.029,0.053c-0.019,0.016-0.063,0.03-0.131,0.049
		l-1.035,0.355c-0.028,0.011-0.065,0.022-0.113,0.039c-0.047,0.016-0.093,0.022-0.137,0.022c-0.036,0-0.067-0.009-0.096-0.026
		c-0.028-0.019-0.041-0.05-0.041-0.094l0.354-3.992c0.009-0.086,0.019-0.146,0.029-0.179c0.011-0.031,0.041-0.054,0.088-0.063
		c0.237-0.047,0.48-0.095,0.73-0.144c0.25-0.048,0.493-0.109,0.729-0.186c0.021,0,0.033,0.003,0.037,0.01s0.006,0.018,0.006,0.029
		c0,0.005-0.001,0.013-0.002,0.022c-0.001,0.011-0.005,0.034-0.012,0.07s-0.016,0.092-0.027,0.166
		c-0.011,0.074-0.027,0.178-0.049,0.312c0.18-0.104,0.35-0.188,0.506-0.252c0.157-0.064,0.307-0.113,0.445-0.148
		s0.271-0.059,0.393-0.07c0.122-0.011,0.237-0.018,0.345-0.018c0.366,0,0.634,0.111,0.801,0.334s0.25,0.557,0.25,1.002
		c0,0.063-0.001,0.127-0.004,0.193c-0.003,0.065-0.008,0.135-0.017,0.205l-0.18,1.68c-0.013,0.108-0.021,0.21-0.022,0.303
		c-0.003,0.093-0.005,0.2-0.005,0.322c0,0.021,0.001,0.038,0.002,0.053s0.003,0.026,0.003,0.037c0,0.023-0.011,0.042-0.029,0.055
		c-0.02,0.014-0.063,0.03-0.131,0.052L162.031,48.988z"/>
	<path fill="#F2AF00" d="M166.058,42.917l-0.142,1.355c-0.019,0.183-0.037,0.367-0.057,0.555c-0.021,0.188-0.038,0.367-0.058,0.539
		c-0.019,0.172-0.034,0.331-0.051,0.477c-0.016,0.146-0.027,0.267-0.039,0.359l0.271-0.297l0.438-0.512
		c0.056-0.063,0.108-0.125,0.16-0.188c0.052-0.063,0.1-0.118,0.142-0.166s0.074-0.089,0.102-0.121s0.042-0.052,0.047-0.057
		l1.57-0.109c0.008-0.003,0.017-0.004,0.024-0.004c0.009,0,0.019,0,0.025,0c0.044,0,0.066,0.012,0.066,0.035
		c0,0.019-0.027,0.059-0.082,0.121l-1.224,1.367c-0.055,0.06-0.119,0.13-0.192,0.209c-0.074,0.079-0.157,0.167-0.248,0.264
		l0.569,0.68l0.984,1.06c0.008,0.013,0.02,0.021,0.035,0.029c0.015,0.007,0.03,0.013,0.045,0.018s0.027,0.011,0.039,0.018
		c0.012,0.008,0.018,0.018,0.018,0.029c0,0.011-0.002,0.02-0.006,0.023s-0.017,0.016-0.037,0.03
		c-0.022,0.02-0.063,0.044-0.123,0.078c-0.059,0.034-0.127,0.071-0.205,0.113c-0.077,0.042-0.16,0.084-0.25,0.127
		c-0.089,0.043-0.175,0.082-0.258,0.117s-0.16,0.063-0.229,0.086c-0.07,0.022-0.125,0.033-0.164,0.033
		c-0.031,0-0.063-0.009-0.092-0.023c-0.03-0.015-0.063-0.044-0.101-0.086c-0.05-0.058-0.111-0.132-0.186-0.225
		c-0.075-0.094-0.154-0.194-0.24-0.306c-0.086-0.11-0.174-0.226-0.264-0.344c-0.091-0.118-0.177-0.23-0.259-0.34
		s-0.155-0.206-0.223-0.293s-0.118-0.157-0.154-0.209c-0.013,0.013-0.025,0.021-0.039,0.029c-0.013,0.007-0.024,0.015-0.037,0.024
		c-0.012,0.01-0.021,0.022-0.028,0.037s-0.013,0.034-0.013,0.062c0,0.011-0.003,0.039-0.008,0.088
		c-0.005,0.048-0.011,0.104-0.018,0.172c-0.007,0.066-0.014,0.138-0.021,0.213c-0.007,0.075-0.015,0.146-0.021,0.213
		s-0.013,0.124-0.019,0.172c-0.005,0.048-0.008,0.077-0.008,0.088c0,0.02,0.001,0.033,0.002,0.045
		c0.001,0.013,0.002,0.022,0.002,0.033c0,0.028-0.01,0.05-0.028,0.064c-0.02,0.014-0.067,0.031-0.144,0.053l-1.022,0.332
		c-0.028,0.011-0.066,0.022-0.113,0.039c-0.047,0.016-0.093,0.022-0.137,0.022c-0.036,0-0.068-0.009-0.097-0.026
		c-0.027-0.019-0.041-0.053-0.041-0.103l0.492-5.629c0-0.013-0.001-0.024-0.004-0.037c-0.003-0.012-0.004-0.023-0.004-0.037
		c0-0.022,0.01-0.045,0.029-0.063c0.019-0.02,0.063-0.038,0.135-0.058l1.098-0.262c0.028-0.005,0.066-0.017,0.113-0.035
		c0.047-0.018,0.093-0.026,0.137-0.026c0.034,0,0.065,0.008,0.097,0.022c0.03,0.016,0.045,0.046,0.045,0.09
		c0,0.006-0.001,0.012-0.002,0.017S166.058,42.912,166.058,42.917z"/>
	<path fill="#F2AF00" d="M169.136,45.542c0.03-0.355,0.057-0.71,0.075-1.059c0.02-0.35,0.041-0.707,0.064-1.074
		c0.005-0.086,0.014-0.146,0.024-0.178c0.012-0.032,0.041-0.055,0.089-0.064c0.241-0.044,0.484-0.089,0.729-0.135
		s0.487-0.106,0.732-0.182c0.008-0.003,0.02-0.004,0.034-0.004c0.028,0,0.044,0.013,0.044,0.038l-0.509,5.578v0.066
		c0,0.022-0.009,0.042-0.026,0.057c-0.019,0.016-0.063,0.03-0.129,0.049l-1.023,0.375c-0.028,0.014-0.066,0.026-0.113,0.041
		c-0.047,0.016-0.093,0.021-0.137,0.021c-0.036,0-0.068-0.009-0.096-0.027c-0.028-0.018-0.041-0.05-0.041-0.094v-0.023
		c0.021-0.263,0.041-0.521,0.061-0.771c0.021-0.25,0.04-0.511,0.063-0.779c0.022-0.268,0.046-0.552,0.071-0.852
		C169.076,46.226,169.105,45.899,169.136,45.542z"/>
	<path fill="#F2AF00" d="M175.425,48.363c-0.008,0.086-0.019,0.146-0.03,0.178c-0.013,0.032-0.042,0.054-0.086,0.064
		c-0.223,0.063-0.452,0.126-0.693,0.188c-0.241,0.063-0.475,0.147-0.701,0.252c-0.008,0.003-0.02,0.004-0.035,0.004
		c-0.021,0-0.032-0.005-0.037-0.016c-0.004-0.011-0.006-0.021-0.006-0.035c0-0.005,0.001-0.015,0.002-0.026
		c0.001-0.013,0.005-0.037,0.011-0.072c0.005-0.035,0.013-0.084,0.021-0.146c0.008-0.062,0.021-0.146,0.037-0.25
		c-0.292,0.19-0.55,0.329-0.775,0.416c-0.225,0.087-0.425,0.131-0.6,0.131c-0.435,0-0.752-0.104-0.951-0.313
		s-0.299-0.522-0.299-0.939c0-0.074,0.001-0.152,0.004-0.231s0.011-0.161,0.023-0.244c0.027-0.308,0.054-0.571,0.073-0.791
		c0.021-0.22,0.038-0.407,0.052-0.561c0.013-0.154,0.023-0.279,0.032-0.378c0.01-0.098,0.018-0.179,0.023-0.243
		c0.006-0.065,0.012-0.119,0.016-0.162s0.01-0.085,0.015-0.127c0.011-0.083,0.021-0.143,0.028-0.177
		c0.009-0.033,0.038-0.056,0.089-0.065c0.121-0.023,0.238-0.045,0.35-0.064c0.111-0.019,0.22-0.04,0.328-0.063
		c0.107-0.023,0.218-0.046,0.33-0.072c0.111-0.026,0.229-0.058,0.354-0.094c0.005,0,0.011-0.001,0.017-0.002
		c0.005-0.001,0.011-0.002,0.016-0.002c0.031,0,0.047,0.011,0.047,0.03v0.009c-0.011,0.089-0.02,0.172-0.027,0.25
		c-0.007,0.078-0.016,0.157-0.022,0.239s-0.017,0.171-0.025,0.265c-0.008,0.094-0.021,0.202-0.032,0.326
		c-0.013,0.124-0.028,0.267-0.048,0.428c-0.019,0.161-0.04,0.349-0.065,0.563c-0.017,0.156-0.031,0.313-0.047,0.468
		c-0.017,0.154-0.023,0.299-0.023,0.432c0,0.073,0.005,0.14,0.017,0.201c0.011,0.061,0.028,0.112,0.057,0.156
		c0.028,0.043,0.063,0.075,0.107,0.1c0.044,0.023,0.102,0.035,0.172,0.035c0.055,0,0.129-0.014,0.223-0.037
		c0.094-0.024,0.188-0.067,0.281-0.129c0.093-0.063,0.177-0.143,0.248-0.242c0.07-0.1,0.111-0.229,0.123-0.381
		c0.019-0.258,0.033-0.475,0.049-0.646c0.015-0.172,0.025-0.318,0.037-0.438c0.011-0.119,0.02-0.218,0.026-0.299
		c0.008-0.081,0.016-0.158,0.021-0.232s0.013-0.153,0.018-0.238s0.012-0.189,0.017-0.317c0.008-0.086,0.018-0.146,0.028-0.179
		c0.012-0.031,0.041-0.054,0.088-0.063c0.237-0.047,0.479-0.095,0.728-0.144c0.248-0.048,0.489-0.109,0.727-0.186
		c0.021,0,0.033,0.003,0.037,0.01s0.006,0.018,0.006,0.029L175.425,48.363z"/>
	<path fill="#F2AF00" d="M176.316,47.769c0-0.003-0.001-0.005-0.002-0.006s-0.002-0.004-0.002-0.007
		c0-0.033,0.019-0.051,0.055-0.051c0.023,0,0.044,0.009,0.063,0.027c0.104,0.099,0.224,0.18,0.356,0.242
		c0.133,0.062,0.279,0.094,0.437,0.094c0.042,0,0.09-0.005,0.145-0.014c0.055-0.01,0.106-0.024,0.156-0.046
		c0.05-0.021,0.091-0.049,0.123-0.084c0.032-0.034,0.049-0.078,0.049-0.131c0-0.058-0.015-0.109-0.043-0.157
		c-0.028-0.049-0.066-0.089-0.113-0.119c-0.025-0.02-0.071-0.051-0.137-0.097c-0.066-0.046-0.135-0.095-0.209-0.146
		s-0.146-0.103-0.211-0.148c-0.066-0.046-0.112-0.081-0.14-0.102c-0.116-0.089-0.21-0.179-0.278-0.271
		c-0.069-0.091-0.122-0.186-0.158-0.282c-0.036-0.098-0.06-0.2-0.07-0.308c-0.01-0.106-0.016-0.22-0.016-0.34
		c0-0.183,0.048-0.354,0.145-0.516c0.098-0.162,0.225-0.305,0.382-0.427c0.156-0.121,0.337-0.22,0.536-0.291
		c0.2-0.07,0.405-0.106,0.613-0.106c0.172,0,0.341,0.026,0.508,0.078s0.321,0.141,0.465,0.266c0.014,0.164,0.022,0.325,0.027,0.484
		s0.013,0.325,0.023,0.5c0,0.034-0.009,0.057-0.023,0.067c-0.015,0.012-0.034,0.019-0.055,0.019c-0.02,0-0.034-0.007-0.047-0.021
		c-0.061-0.058-0.121-0.113-0.185-0.17c-0.063-0.056-0.128-0.104-0.196-0.147c-0.069-0.043-0.144-0.078-0.222-0.105
		c-0.078-0.026-0.161-0.041-0.25-0.041c-0.055,0-0.108,0.005-0.164,0.015c-0.055,0.009-0.104,0.025-0.147,0.051
		c-0.044,0.024-0.08,0.058-0.107,0.1c-0.026,0.042-0.041,0.095-0.041,0.16c0,0.075,0.009,0.141,0.027,0.195
		c0.018,0.054,0.062,0.107,0.129,0.16l0.727,0.491c0.134,0.092,0.24,0.182,0.322,0.269s0.146,0.174,0.193,0.26
		s0.079,0.171,0.096,0.256s0.025,0.169,0.025,0.252c0,0.234-0.055,0.44-0.162,0.619c-0.108,0.179-0.248,0.327-0.42,0.445
		s-0.366,0.208-0.584,0.27c-0.219,0.063-0.437,0.092-0.654,0.092c-0.167,0-0.327-0.018-0.482-0.053
		c-0.154-0.035-0.299-0.089-0.432-0.162L176.316,47.769z"/>
	<path fill="#F2AF00" d="M179.761,47.191c0.033-0.356,0.066-0.71,0.102-1.06c0.035-0.349,0.063-0.707,0.09-1.073
		c0.005-0.086,0.014-0.146,0.025-0.179c0.011-0.031,0.041-0.054,0.088-0.063c0.222-0.044,0.453-0.091,0.695-0.14
		c0.241-0.048,0.477-0.109,0.702-0.186c0.009-0.003,0.021-0.004,0.035-0.004c0.028,0,0.043,0.011,0.043,0.031l-0.352,3.805
		c-0.008,0.086-0.018,0.146-0.027,0.178s-0.039,0.055-0.086,0.064c-0.222,0.066-0.445,0.144-0.672,0.227s-0.466,0.168-0.719,0.254
		c-0.008,0.003-0.021,0.004-0.035,0.004c-0.028,0-0.043-0.013-0.043-0.039c0-0.003,0.003-0.037,0.008-0.104s0.013-0.155,0.021-0.262
		c0.008-0.107,0.019-0.228,0.028-0.359s0.021-0.266,0.033-0.397c0.012-0.133,0.022-0.262,0.033-0.384S179.753,47.277,179.761,47.191
		z M180.054,44.073c0.008-0.112,0.014-0.198,0.018-0.258c0.004-0.061,0.007-0.104,0.01-0.135c0.003-0.031,0.004-0.05,0.004-0.058
		s0.001-0.014,0.002-0.018s0.003-0.013,0.004-0.023s0.004-0.036,0.007-0.074s0.007-0.093,0.012-0.166
		c0.005-0.072,0.013-0.173,0.022-0.301c0.006-0.086,0.015-0.146,0.025-0.178s0.041-0.054,0.088-0.064
		c0.222-0.044,0.453-0.091,0.695-0.139s0.477-0.11,0.703-0.186c0.008-0.003,0.02-0.005,0.035-0.005
		c0.008,0.017,0.019,0.026,0.03,0.031l0.013,0.008l-0.087,1.07c-0.008,0.086-0.018,0.146-0.028,0.18
		c-0.011,0.034-0.04,0.056-0.084,0.063c-0.223,0.042-0.445,0.087-0.672,0.137c-0.228,0.05-0.467,0.1-0.72,0.148
		c-0.008,0.003-0.02,0.004-0.034,0.004C180.069,44.113,180.054,44.1,180.054,44.073z"/>
	<path fill="#F2AF00" d="M184.921,44.527c0.012-0.026,0.03-0.039,0.06-0.039c0.005,0,0.011,0.001,0.016,0.002
		s0.011,0.002,0.017,0.002c0.194,0.075,0.396,0.138,0.602,0.186c0.206,0.049,0.41,0.096,0.613,0.14
		c0.05,0.011,0.074,0.039,0.074,0.086c0,0.034-0.017,0.086-0.048,0.156l-1.608,3.422c-0.021,0.047-0.039,0.085-0.056,0.112
		c-0.016,0.028-0.03,0.053-0.047,0.07c-0.016,0.019-0.031,0.031-0.051,0.039c-0.019,0.008-0.04,0.015-0.065,0.021
		c-0.198,0.039-0.398,0.084-0.603,0.135s-0.414,0.114-0.633,0.188c-0.005,0-0.009,0.001-0.012,0.002s-0.006,0.002-0.009,0.002
		h-0.026c-0.014,0-0.023-0.005-0.031-0.014s-0.013-0.018-0.016-0.025c-0.039-0.111-0.084-0.257-0.136-0.434
		c-0.051-0.177-0.105-0.375-0.166-0.594c-0.06-0.219-0.121-0.452-0.188-0.699s-0.132-0.499-0.199-0.754
		c-0.066-0.255-0.135-0.509-0.201-0.76c-0.065-0.251-0.131-0.489-0.192-0.713c-0.023-0.081-0.035-0.139-0.035-0.173
		c0-0.035,0.021-0.06,0.063-0.069c0.203-0.044,0.414-0.091,0.634-0.14c0.219-0.048,0.426-0.109,0.62-0.186
		c0.009-0.003,0.021-0.004,0.035-0.004c0.034,0,0.053,0.013,0.056,0.039l0.516,2.625c0.013-0.031,0.035-0.088,0.066-0.17
		c0.03-0.082,0.068-0.182,0.112-0.295c0.044-0.114,0.094-0.241,0.146-0.379c0.053-0.139,0.107-0.278,0.164-0.423
		c0.056-0.144,0.11-0.285,0.166-0.428c0.055-0.142,0.105-0.273,0.153-0.396c0.049-0.122,0.092-0.23,0.127-0.324
		C184.875,44.643,184.903,44.573,184.921,44.527z"/>
	<path fill="#F2AF00" d="M188.706,44.488c0.247,0,0.473,0.046,0.674,0.139c0.202,0.093,0.375,0.212,0.521,0.359
		c0.145,0.146,0.256,0.312,0.334,0.494c0.078,0.182,0.117,0.363,0.117,0.547c0,0.161-0.051,0.323-0.148,0.486
		c-0.098,0.162-0.237,0.31-0.416,0.438s-0.393,0.235-0.643,0.316s-0.524,0.121-0.824,0.121c-0.156,0-0.32-0.017-0.492-0.048
		c0.011,0.112,0.043,0.208,0.098,0.289c0.056,0.081,0.124,0.147,0.207,0.199s0.179,0.091,0.283,0.115
		c0.105,0.023,0.214,0.037,0.326,0.037c0.125,0,0.245-0.011,0.361-0.033c0.115-0.022,0.228-0.052,0.334-0.088
		c0.105-0.036,0.21-0.077,0.309-0.121c0.1-0.044,0.192-0.089,0.281-0.133c0.022-0.005,0.044-0.01,0.061-0.015
		c0.018-0.004,0.033-0.006,0.05-0.006c-0.004,0.083-0.005,0.163-0.005,0.238s-0.001,0.167-0.002,0.273
		c-0.001,0.105-0.003,0.226-0.006,0.354c0.008,0.013,0.014,0.026,0.017,0.039s0.004,0.023,0.004,0.031
		c0,0.031-0.028,0.064-0.086,0.102c-0.059,0.037-0.132,0.074-0.226,0.113c-0.093,0.039-0.197,0.077-0.315,0.113
		s-0.239,0.068-0.361,0.1s-0.241,0.054-0.354,0.07c-0.114,0.016-0.216,0.024-0.302,0.024c-0.28,0-0.554-0.049-0.817-0.146
		c-0.265-0.098-0.499-0.237-0.703-0.42c-0.204-0.184-0.368-0.403-0.49-0.664s-0.184-0.554-0.184-0.879
		c0-0.341,0.059-0.661,0.176-0.959s0.282-0.559,0.494-0.779s0.466-0.396,0.76-0.523S188.352,44.488,188.706,44.488z M188.659,45.527
		c-0.105,0-0.205,0.021-0.295,0.067c-0.09,0.047-0.172,0.11-0.246,0.195s-0.139,0.188-0.193,0.305
		c-0.054,0.118-0.099,0.249-0.133,0.394c0.27-0.047,0.491-0.097,0.668-0.148c0.178-0.051,0.319-0.104,0.427-0.157
		c0.106-0.055,0.183-0.106,0.227-0.16c0.044-0.055,0.066-0.104,0.066-0.154c0-0.047-0.019-0.091-0.054-0.133
		s-0.079-0.078-0.131-0.109s-0.107-0.056-0.17-0.071C188.763,45.538,188.709,45.527,188.659,45.527z"/>
	<path fill="#F2AF00" d="M195.523,48.503c-0.014,0.034-0.025,0.066-0.037,0.099c-0.012,0.031-0.026,0.06-0.045,0.086
		c-0.02,0.025-0.041,0.05-0.068,0.069c-0.026,0.021-0.062,0.038-0.104,0.052c-0.164,0.052-0.327,0.097-0.488,0.135
		s-0.324,0.084-0.488,0.139c-0.03,0.011-0.059,0.02-0.082,0.023c-0.022,0.004-0.046,0.008-0.065,0.008
		c-0.047,0-0.081-0.012-0.103-0.035c-0.021-0.022-0.036-0.054-0.047-0.09l-1.336-5.313c-0.021-0.066-0.031-0.124-0.031-0.168
		c0-0.058,0.02-0.104,0.056-0.143c0.035-0.039,0.096-0.069,0.178-0.094c0.082-0.025,0.188-0.048,0.315-0.068
		c0.129-0.02,0.287-0.044,0.476-0.07c0.091-0.013,0.168-0.021,0.229-0.028c0.063-0.007,0.116-0.011,0.16-0.011
		c0.075,0,0.126,0.014,0.15,0.037c0.023,0.024,0.048,0.063,0.067,0.115l0.746,3.228l1.052-2.966
		c0.016-0.042,0.028-0.074,0.041-0.102c0.012-0.027,0.033-0.049,0.065-0.068c0.032-0.019,0.082-0.039,0.148-0.059
		c0.065-0.021,0.162-0.042,0.287-0.068c0.194-0.042,0.355-0.07,0.483-0.09c0.128-0.019,0.23-0.027,0.31-0.027
		c0.099,0,0.163,0.013,0.192,0.035c0.03,0.023,0.045,0.059,0.045,0.103c0.003,0.019-0.001,0.037-0.01,0.057
		c-0.009,0.021-0.019,0.044-0.029,0.072L195.523,48.503z"/>
	<path fill="#F2AF00" d="M197.695,47.191c0.034-0.356,0.067-0.71,0.102-1.06c0.035-0.349,0.063-0.707,0.091-1.073
		c0.005-0.086,0.014-0.146,0.024-0.179c0.011-0.031,0.041-0.054,0.088-0.063c0.223-0.044,0.453-0.091,0.695-0.14
		c0.242-0.048,0.477-0.109,0.703-0.186c0.008-0.003,0.02-0.004,0.035-0.004c0.027,0,0.043,0.011,0.043,0.031l-0.353,3.805
		c-0.008,0.086-0.017,0.146-0.026,0.178c-0.011,0.032-0.039,0.055-0.086,0.064c-0.223,0.066-0.445,0.144-0.673,0.227
		c-0.227,0.083-0.466,0.168-0.719,0.254c-0.008,0.003-0.02,0.004-0.035,0.004c-0.027,0-0.043-0.013-0.043-0.039
		c0-0.003,0.003-0.037,0.008-0.104c0.006-0.067,0.014-0.155,0.021-0.262c0.008-0.107,0.019-0.228,0.029-0.359
		c0.01-0.132,0.021-0.266,0.032-0.397c0.013-0.133,0.022-0.262,0.033-0.384C197.677,47.382,197.687,47.277,197.695,47.191z
		 M197.988,44.073c0.008-0.112,0.014-0.198,0.018-0.258c0.004-0.061,0.008-0.104,0.011-0.135c0.003-0.031,0.004-0.05,0.004-0.058
		s0.001-0.014,0.002-0.018s0.003-0.013,0.004-0.023s0.003-0.036,0.006-0.074s0.007-0.093,0.012-0.166
		c0.005-0.072,0.014-0.173,0.023-0.301c0.005-0.086,0.014-0.146,0.024-0.178c0.012-0.032,0.041-0.054,0.089-0.064
		c0.222-0.044,0.452-0.091,0.694-0.139s0.478-0.11,0.703-0.186c0.008-0.003,0.021-0.005,0.035-0.005
		c0.008,0.017,0.019,0.026,0.031,0.031l0.012,0.008l-0.086,1.07c-0.008,0.086-0.019,0.146-0.029,0.18
		c-0.011,0.034-0.04,0.056-0.084,0.063c-0.222,0.042-0.444,0.087-0.672,0.137c-0.227,0.05-0.466,0.1-0.719,0.148
		c-0.008,0.003-0.021,0.004-0.035,0.004C198.002,44.113,197.988,44.1,197.988,44.073z"/>
	<path fill="#F2AF00" d="M204.304,48.452c0,0.005-0.001,0.011-0.003,0.018c-0.001,0.008-0.002,0.014-0.002,0.019
		c0,0.013,0.001,0.022,0.002,0.031c0.002,0.008,0.003,0.016,0.003,0.022c0,0.023-0.01,0.042-0.025,0.058
		c-0.016,0.015-0.062,0.029-0.131,0.049l-1.047,0.34c-0.028,0.011-0.066,0.022-0.113,0.039c-0.047,0.016-0.093,0.022-0.137,0.022
		c-0.036,0-0.068-0.009-0.097-0.026c-0.027-0.019-0.041-0.052-0.041-0.103c0-0.047,0.001-0.085,0.002-0.112
		c0.001-0.028,0.004-0.057,0.005-0.08c0.001-0.024,0.004-0.053,0.008-0.08c0.004-0.028,0.009-0.066,0.014-0.113
		c-0.195,0.156-0.396,0.281-0.604,0.375s-0.426,0.141-0.654,0.141c-0.25,0-0.472-0.06-0.666-0.178s-0.357-0.276-0.49-0.477
		s-0.232-0.428-0.303-0.685s-0.104-0.523-0.104-0.803c0-0.362,0.061-0.692,0.179-0.99c0.117-0.298,0.278-0.554,0.481-0.766
		s0.44-0.376,0.711-0.492c0.271-0.116,0.56-0.174,0.863-0.174c0.164,0,0.321,0.043,0.471,0.129c0.15,0.086,0.291,0.196,0.424,0.332
		c0.009-0.128,0.018-0.267,0.027-0.416s0.021-0.302,0.031-0.457s0.021-0.308,0.031-0.459c0.01-0.151,0.02-0.289,0.026-0.414
		c0-0.022,0.009-0.042,0.025-0.057c0.016-0.016,0.061-0.03,0.131-0.049l1.098-0.263c0.028-0.005,0.066-0.017,0.113-0.035
		c0.047-0.018,0.093-0.026,0.137-0.026c0.034,0,0.065,0.008,0.097,0.022c0.03,0.016,0.045,0.046,0.045,0.09
		c0,0.006-0.001,0.018-0.002,0.033c-0.001,0.017-0.002,0.028-0.002,0.033L204.304,48.452z M202.941,46.624
		c0.008-0.083,0.017-0.171,0.024-0.262c0.009-0.091,0.021-0.188,0.033-0.285c-0.06-0.156-0.145-0.283-0.254-0.381
		c-0.108-0.098-0.246-0.146-0.41-0.146c-0.161,0-0.298,0.047-0.41,0.14c-0.111,0.093-0.201,0.206-0.27,0.342
		s-0.116,0.278-0.146,0.428c-0.029,0.15-0.045,0.282-0.045,0.396c0,0.141,0.01,0.279,0.025,0.418
		c0.016,0.138,0.044,0.263,0.082,0.375c0.038,0.111,0.088,0.202,0.15,0.271c0.062,0.069,0.141,0.104,0.233,0.104
		c0.229-0.008,0.415-0.061,0.56-0.156c0.144-0.096,0.258-0.214,0.344-0.352L202.941,46.624z"/>
	<path fill="#F2AF00" d="M207.503,44.488c0.247,0,0.473,0.046,0.674,0.139c0.202,0.093,0.375,0.212,0.521,0.359
		c0.145,0.146,0.256,0.312,0.334,0.494c0.078,0.182,0.117,0.363,0.117,0.547c0,0.161-0.05,0.323-0.148,0.486
		c-0.098,0.162-0.236,0.31-0.416,0.438c-0.179,0.129-0.393,0.235-0.643,0.316s-0.524,0.121-0.824,0.121
		c-0.156,0-0.32-0.017-0.492-0.048c0.012,0.112,0.043,0.208,0.099,0.289c0.055,0.081,0.124,0.147,0.207,0.199
		s0.178,0.091,0.282,0.115c0.105,0.023,0.215,0.037,0.326,0.037c0.125,0,0.245-0.011,0.361-0.033s0.228-0.052,0.334-0.088
		c0.105-0.036,0.21-0.077,0.309-0.121c0.1-0.044,0.192-0.089,0.281-0.133c0.023-0.005,0.044-0.01,0.062-0.015
		c0.017-0.004,0.032-0.006,0.049-0.006c-0.003,0.083-0.004,0.163-0.004,0.238s-0.001,0.167-0.002,0.273
		c-0.001,0.105-0.004,0.226-0.007,0.354c0.009,0.013,0.014,0.026,0.017,0.039s0.004,0.023,0.004,0.031
		c0,0.031-0.028,0.064-0.086,0.102c-0.059,0.037-0.132,0.074-0.226,0.113c-0.093,0.039-0.197,0.077-0.315,0.113
		s-0.239,0.068-0.361,0.1s-0.241,0.054-0.354,0.07c-0.114,0.016-0.215,0.024-0.302,0.024c-0.28,0-0.554-0.049-0.817-0.146
		c-0.265-0.098-0.499-0.237-0.703-0.42c-0.204-0.184-0.368-0.403-0.49-0.664s-0.184-0.554-0.184-0.879
		c0-0.341,0.059-0.661,0.176-0.959s0.282-0.559,0.494-0.779s0.466-0.396,0.76-0.523S207.149,44.488,207.503,44.488z M207.456,45.527
		c-0.105,0-0.205,0.021-0.295,0.067c-0.09,0.047-0.172,0.11-0.246,0.195s-0.139,0.188-0.192,0.305
		c-0.055,0.118-0.1,0.249-0.134,0.394c0.27-0.047,0.491-0.097,0.668-0.148c0.178-0.051,0.319-0.104,0.427-0.157
		c0.106-0.055,0.183-0.106,0.227-0.16c0.044-0.055,0.066-0.104,0.066-0.154c0-0.047-0.019-0.091-0.054-0.133
		c-0.034-0.042-0.078-0.078-0.131-0.109c-0.052-0.031-0.107-0.056-0.17-0.071C207.56,45.538,207.506,45.527,207.456,45.527z"/>
	<path fill="#F2AF00" d="M211.784,49.05c-0.367,0-0.688-0.06-0.967-0.18s-0.51-0.279-0.697-0.479c-0.187-0.2-0.328-0.43-0.422-0.688
		s-0.141-0.528-0.141-0.807c0-0.279,0.046-0.544,0.137-0.795s0.219-0.478,0.383-0.677c0.164-0.198,0.36-0.365,0.59-0.5
		c0.23-0.134,0.481-0.225,0.758-0.271c0.042-0.003,0.063-0.012,0.063-0.027c0-0.027-0.003-0.056-0.01-0.08
		c-0.007-0.023-0.011-0.046-0.011-0.063c0-0.028,0.006-0.048,0.017-0.06c0.011-0.011,0.021-0.016,0.035-0.016
		c0.497,0,0.921,0.057,1.27,0.17c0.35,0.113,0.633,0.269,0.853,0.463c0.219,0.195,0.378,0.426,0.477,0.691
		c0.099,0.265,0.148,0.551,0.148,0.854c0,0.389-0.065,0.734-0.195,1.039c-0.13,0.306-0.308,0.563-0.533,0.773
		c-0.225,0.21-0.488,0.372-0.789,0.481C212.448,48.991,212.125,49.05,211.784,49.05z M211.062,46.855
		c0,0.141,0.015,0.279,0.045,0.418c0.03,0.138,0.079,0.263,0.147,0.375c0.069,0.111,0.159,0.202,0.271,0.271
		c0.112,0.069,0.251,0.104,0.418,0.104c0.12-0.005,0.225-0.032,0.313-0.08c0.09-0.048,0.167-0.11,0.232-0.188
		s0.119-0.163,0.162-0.26s0.077-0.196,0.102-0.299c0.025-0.104,0.042-0.204,0.054-0.303c0.011-0.1,0.016-0.188,0.016-0.271
		c0-0.136-0.021-0.269-0.061-0.397c-0.04-0.129-0.101-0.245-0.179-0.345c-0.078-0.099-0.175-0.179-0.291-0.239
		c-0.116-0.062-0.249-0.093-0.399-0.093c-0.156,0-0.288,0.046-0.396,0.14c-0.106,0.093-0.191,0.206-0.256,0.342
		c-0.063,0.136-0.11,0.278-0.139,0.428C211.074,46.608,211.062,46.74,211.062,46.855z"/>
	<path fill="#F2AF00" d="M214.784,47.769c0-0.003-0.001-0.005-0.002-0.006s-0.002-0.004-0.002-0.007
		c0-0.033,0.019-0.051,0.055-0.051c0.023,0,0.044,0.009,0.063,0.027c0.104,0.099,0.224,0.18,0.356,0.242
		c0.134,0.062,0.279,0.094,0.437,0.094c0.042,0,0.09-0.005,0.145-0.014c0.056-0.01,0.106-0.024,0.156-0.046
		c0.05-0.021,0.091-0.049,0.123-0.084c0.032-0.034,0.049-0.078,0.049-0.131c0-0.058-0.015-0.109-0.043-0.157
		c-0.028-0.049-0.065-0.089-0.113-0.119c-0.025-0.02-0.07-0.051-0.137-0.097c-0.065-0.046-0.135-0.095-0.209-0.146
		s-0.145-0.103-0.211-0.148s-0.112-0.081-0.139-0.102c-0.117-0.089-0.21-0.179-0.279-0.271c-0.069-0.091-0.122-0.186-0.158-0.282
		c-0.036-0.098-0.06-0.2-0.069-0.308c-0.011-0.106-0.017-0.22-0.017-0.34c0-0.183,0.048-0.354,0.146-0.516
		c0.097-0.162,0.224-0.305,0.381-0.427c0.157-0.121,0.337-0.22,0.537-0.291c0.199-0.07,0.404-0.106,0.612-0.106
		c0.173,0,0.342,0.026,0.509,0.078s0.32,0.141,0.465,0.266c0.013,0.164,0.021,0.325,0.026,0.484s0.014,0.325,0.023,0.5
		c0,0.034-0.008,0.057-0.023,0.067c-0.015,0.012-0.033,0.019-0.055,0.019c-0.019,0-0.034-0.007-0.047-0.021
		c-0.061-0.058-0.121-0.113-0.184-0.17c-0.063-0.056-0.129-0.104-0.197-0.147c-0.069-0.043-0.144-0.078-0.222-0.105
		c-0.077-0.026-0.16-0.041-0.25-0.041c-0.055,0-0.108,0.005-0.163,0.015c-0.056,0.009-0.104,0.025-0.148,0.051
		c-0.044,0.024-0.08,0.058-0.107,0.1c-0.026,0.042-0.041,0.095-0.041,0.16c0,0.075,0.01,0.141,0.027,0.195
		c0.019,0.054,0.063,0.107,0.129,0.16l0.728,0.491c0.133,0.092,0.239,0.182,0.321,0.269s0.146,0.174,0.193,0.26
		s0.079,0.171,0.096,0.256c0.018,0.085,0.025,0.169,0.025,0.252c0,0.234-0.054,0.44-0.162,0.619s-0.248,0.327-0.42,0.445
		s-0.366,0.208-0.584,0.27c-0.218,0.063-0.437,0.092-0.654,0.092c-0.167,0-0.327-0.018-0.481-0.053
		c-0.155-0.035-0.3-0.089-0.433-0.162L214.784,47.769z"/>
</g>
<polygon fill="#F2AF00" points="211.619,43.04 211.412,42.199 209.316,43.881 209.523,44.514 "/>
</svg>
